<svg viewBox="0 0 1024 1024" version="1.1" xmlns="http://www.w3.org/2000/svg"><path d="M623.055 683.62l11.963 2.496c9.732 2.03 15.975 11.565 13.945 21.297a18 18 0 0 1-0.082 0.375 642.743 642.743 0 0 1-1.522 6.456c-15.978 66.024-40.836 136.64-76.12 212.112-2.561 5.479-6.346 13.33-11.355 23.555-4.373 8.927-15.155 12.62-24.083 8.247a17.884 17.884 0 0 1-0.07-0.035l-10.866-5.382c-8.886-4.4-12.539-15.158-8.171-24.06 3.58-7.296 6.431-13.19 8.552-17.683 35.034-74.195 59.504-143.204 75.07-207.347 0.447-1.843 0.956-3.998 1.526-6.463 2.204-9.539 11.629-15.566 21.213-13.567zM439.832 840.88l10.928 5.28c8.952 4.325 12.703 15.087 8.378 24.038a18 18 0 0 1-0.307 0.606c-2.482 4.679-4.592 8.54-6.329 11.587-8.972 15.73-18.666 30.784-29.08 45.158-2.385 3.293-5.65 7.578-9.795 12.855-6.14 7.819-17.455 9.179-25.274 3.039a17.998 17.998 0 0 1-0.345-0.278l-9.295-7.678c-7.521-6.212-8.725-17.285-2.714-24.968 3.618-4.626 6.55-8.497 8.799-11.614 9.3-12.897 17.97-26.418 26.016-40.567 1.463-2.573 3.226-5.803 5.29-9.69 4.537-8.545 15.017-11.976 23.728-7.767z m327.29-479.126a18 18 0 0 1 0.458 0.726c3.425 5.721 6.12 10.491 8.085 14.31 20.898 40.624 32.042 85.852 32.042 132.685l-0.009 8.771c-0.055 24.463-0.379 39.678-1.47 59.756-1.684 30.966-4.977 61.897-10.407 94.165-12.118 72.023-34.158 146.248-68.656 223.908-1.561 3.515-3.757 8.32-6.586 14.417-4.186 9.017-14.889 12.934-23.906 8.749a18.004 18.004 0 0 1-0.107-0.05l-10.985-5.187c-8.945-4.224-12.806-14.875-8.644-23.85a932.742 932.742 0 0 0 5.819-12.75c33.004-74.176 53.985-144.763 65.481-213.092 5.123-30.444 8.229-59.62 9.82-88.88l0.21-3.98c0.979-19.346 1.2-34.797 1.2-61.977 0-38.542-8.992-75.72-25.889-109.233-1.646-3.265-3.992-7.464-7.037-12.596-4.889-8.239-2.468-18.863 5.506-24.17l10.117-6.733c8.275-5.508 19.45-3.264 24.957 5.011z m-254.888-7.572c86.588 0 156.782 69.527 156.782 155.293l0.004 1.114c0.005 0.594 0.013 1.25 0.025 1.986l0.192 9c0.322 14.646 0.343 27.623-0.12 41.111-0.11 3.188-0.326 7.476-0.65 12.863-0.596 9.923-9.123 17.485-19.046 16.889a18.007 18.007 0 0 1-0.373-0.026l-12.185-0.986c-9.759-0.789-17.097-9.234-16.517-19.007 0.25-4.216 0.424-7.69 0.523-10.426 0.428-11.872 0.449-23.305 0.206-36.084l-0.243-11.327a273.397 273.397 0 0 1-0.057-5.107c0-59.376-48.595-107.51-108.54-107.51-59.946 0-108.542 48.134-108.542 107.51l0.002 0.433c0.012 1.417 0.083 3.307 0.22 5.908l0.221 3.853c0.203 3.322 0.61 9.905 0.745 12.186 1.202 20.51 1.62 37.748 0.982 57.324-0.853 26.189-3.63 52.414-8.818 79.064-13.172 67.673-40.807 132.8-86.53 193.897-4.041 5.4-10.065 12.88-18.071 22.44-6.383 7.62-17.736 8.625-25.357 2.242a18.002 18.002 0 0 1-0.348-0.299l-9.014-7.948c-7.32-6.455-8.163-17.569-1.899-25.054 6.865-8.201 12.176-14.814 15.935-19.836 41.25-55.12 66.065-113.6 77.916-174.488 4.683-24.058 7.196-47.79 7.97-71.559 0.566-17.348 0.223-32.792-0.82-51.166l-0.951-15.717c-0.286-4.944-0.423-8.324-0.423-11.28 0-85.766 70.193-155.293 156.781-155.293zM234.111 599.21l12.246 0.672c9.926 0.544 17.531 9.032 16.987 18.959a18 18 0 0 1-0.05 0.67c-0.622 6.74-1.224 12.194-1.806 16.363-3.335 23.896-8.826 46.064-17.069 67.308-10.554 27.2-25.4 52.007-45.085 74.318-2.698 3.058-6.448 6.94-11.249 11.648-7.098 6.96-18.495 6.847-25.455-0.251a18 18 0 0 1-0.637-0.685l-7.926-8.972c-6.32-7.155-5.955-18 0.832-24.714 3.32-3.284 5.993-6.073 8.019-8.366 15.96-18.066 27.912-38.06 36.472-60.12 6.498-16.746 11.004-34.484 13.89-53.819 0.623-4.182 1.265-9.76 1.926-16.734 0.91-9.621 9.256-16.806 18.905-16.277z m686.551 1.49l11.998 2.446c9.74 1.987 16.027 11.493 14.04 21.234a18 18 0 0 1-0.183 0.803c-1.867 7.408-3.515 13.429-4.943 18.06-10.408 33.771-23.466 66.512-43.763 98.644-2.52 3.991-6.131 9.362-10.833 16.114-5.68 8.158-16.9 10.166-25.057 4.485a17.999 17.999 0 0 1-0.362-0.259l-9.751-7.154c-7.863-5.77-9.701-16.75-4.146-24.766 4.582-6.612 8.158-11.983 10.727-16.112 16.645-26.753 27.15-53.825 36.023-81.637 1.508-4.728 3.245-10.95 5.21-18.665 2.371-9.306 11.63-15.112 21.04-13.193zM506.05 509.097l12.214 0.748c9.923 0.607 17.474 9.143 16.867 19.066l-0.007 0.102c-0.36 5.38-0.664 9.803-0.913 13.266-5.867 81.661-13.71 145.176-23.672 190.91-0.858 3.94-2.015 8.739-3.47 14.397-2.478 9.628-12.29 15.424-21.918 12.947a18 18 0 0 1-0.672-0.187l-11.703-3.5c-9.247-2.765-14.667-12.33-12.287-21.684 1.391-5.466 2.521-10.235 3.39-14.307 9.175-43.008 16.662-104.261 22.314-183.398 0.22-3.067 0.485-6.932 0.797-11.596 0.661-9.879 9.177-17.37 19.06-16.764z m6.558-427.757l0.008 0.278 0.249 11.814c0.206 9.818-7.494 17.99-17.307 18.365-7.052 0.27-12.786 0.594-17.203 0.97-205.14 17.47-366.114 187.575-366.114 394.818 0 30.811 1.554 61.13 8.508 90.54 0.988 4.182 2.48 9.723 4.472 16.624 2.693 9.321-2.487 19.098-11.71 22.107l-11.635 3.796c-9.451 3.083-19.612-2.079-22.696-11.53-0.059-0.182-0.115-0.365-0.169-0.549-1.937-6.65-3.433-12.133-4.486-16.449C66.237 578.185 64 543.16 64 507.585 64 273.691 246.918 82.047 479.038 64.773c3.863-0.287 8.838-0.542 14.924-0.764 9.935-0.363 18.283 7.396 18.645 17.33z m-0.373 135.468c48.825 0 95.897 11.774 137.872 33.749 4.765 2.494 11.036 6.186 18.812 11.076 8.415 5.292 10.947 16.404 5.656 24.82a18 18 0 0 1-0.696 1.025l-7.037 9.648c-5.557 7.619-16.052 9.657-24.057 4.673-7.723-4.809-14.05-8.451-18.983-10.927-34.14-17.134-72.14-26.282-111.567-26.282-125.344 0-228.903 92.393-245.045 212.174-0.495 3.672-0.95 8.939-1.366 15.8-0.576 9.5-8.449 16.911-17.967 16.911h-12.352c-9.941 0-18-8.058-18-18a18 18 0 0 1 0.028-1.003c0.331-5.933 0.719-10.819 1.162-14.657 16.854-145.782 141.848-259.007 293.54-259.007z m104.617-140.99a18 18 0 0 1 0.577 0.124c6.677 1.548 12.12 2.904 16.33 4.07 181.481 50.236 313.518 209.814 325.779 398.682 0.152 2.35 0.302 5.747 0.45 10.192 0.33 9.936-7.456 18.258-17.392 18.589a18 18 0 0 1-0.598 0.01h-12.23c-9.682 0-17.63-7.66-17.988-17.335-0.157-4.264-0.339-7.838-0.543-10.723-11.79-166.158-127.479-306.516-286.582-352.3-3.926-1.13-9.827-2.618-17.703-4.466-9.436-2.214-15.425-11.503-13.548-21.012l2.302-11.658c1.926-9.753 11.394-16.098 21.146-14.172z" /></svg>
