<svg viewBox="0 0 1024 1024" version="1.1" xmlns="http://www.w3.org/2000/svg"><path d="M832 256h-64V192h64V128h-192v64h64v64H192c-70.4 0-128 57.6-128 128v256c0 70.4 57.6 128 128 128h512v64h-64v64h192v-64h-64v-64h64c70.4 0 128-57.6 128-128V384c0-70.4-57.6-128-128-128zM192 704c-38.4 0-64-25.6-64-64V384c0-38.4 25.6-64 64-64h512v384H192z m704-64c0 38.4-25.6 64-64 64h-64V320h64c38.4 0 64 25.6 64 64v256z"  /><path d="M320 512m-64 0a64 64 0 1 0 128 0 64 64 0 1 0-128 0Z"  /><path d="M576 512m-64 0a64 64 0 1 0 128 0 64 64 0 1 0-128 0Z"  /></svg>
