<svg comefrom="https://iconsapi.com" viewBox="0 0 1024 1024" version="1.1" xmlns="http://www.w3.org/2000/svg"><path d="M298.666667 128a170.666667 170.666667 0 0 1 170.666666 170.666667c0 79.36-54.186667 146.346667-128 165.12v96.426666c15.786667 3.84 30.72 10.24 44.373334 18.346667l192.853333-192.853333C563.2 360.106667 554.666667 330.666667 554.666667 298.666667a170.666667 170.666667 0 0 1 170.666666-170.666667 170.666667 170.666667 0 0 1 170.666667 170.666667 170.666667 170.666667 0 0 1-170.666667 170.666666c-31.573333 0-61.013333-8.533333-85.333333-23.466666L445.866667 640c14.933333 24.32 23.466667 53.76 23.466666 85.333333a170.666667 170.666667 0 0 1-170.666666 170.666667 170.666667 170.666667 0 0 1-170.666667-170.666667c0-79.36 54.186667-146.346667 128-165.12v-96.426666C182.186667 445.013333 128 378.026667 128 298.666667a170.666667 170.666667 0 0 1 170.666667-170.666667m426.666666 426.666667a170.666667 170.666667 0 0 1 170.666667 170.666666 170.666667 170.666667 0 0 1-170.666667 170.666667 170.666667 170.666667 0 0 1-170.666666-170.666667 170.666667 170.666667 0 0 1 170.666666-170.666666m0 85.333333a85.333333 85.333333 0 0 0-85.333333 85.333333 85.333333 85.333333 0 0 0 85.333333 85.333334 85.333333 85.333333 0 0 0 85.333334-85.333334 85.333333 85.333333 0 0 0-85.333334-85.333333z" fill="" /></svg>